<svg width="414" height="273" viewBox="0 0 414 273" fill="none" xmlns="http://www.w3.org/2000/svg">
<path opacity="0.3" d="M0 60.5074L20.613 72.3148L0.570709 83.8025L0.387756 83.9042V107.512L0.0219116 107.722L0.387756 107.933V131.541L20.613 143.13L0.563416 154.625L0.380432 154.727V179.17L21.4911 167.05L21.674 166.948V143.755V119.726L40.8894 108.747C41.0682 108.927 41.2934 109.056 41.5406 109.117V155.141L62.1317 166.941V190.548L81.7056 201.753C81.6678 201.875 81.6481 202.002 81.6471 202.131C81.6475 202.256 81.6672 202.381 81.7056 202.501L62.3219 213.633L62.139 213.734V236.913L42.3016 225.542V177.913L22.3618 189.342C22.2094 189.167 22.0168 189.03 21.8001 188.943C21.5834 188.856 21.349 188.822 21.1164 188.844C20.8839 188.866 20.6599 188.942 20.4632 189.067C20.2665 189.193 20.1029 189.363 19.986 189.564C19.8691 189.764 19.8024 189.99 19.7913 190.222C19.7802 190.453 19.8251 190.684 19.9223 190.895C20.0195 191.106 20.1661 191.291 20.3499 191.434C20.5337 191.577 20.7494 191.675 20.9789 191.718V237.32L0.541473 249.033L0.358521 249.142V273.585L20.9715 261.763L41.9285 249.774L62.8781 261.785V237.756L83.2716 226.065L83.4545 225.963V203.518C83.7421 203.42 83.9915 203.234 84.168 202.988C84.3445 202.742 84.4393 202.447 84.4393 202.145C84.4393 201.843 84.3445 201.548 84.168 201.302C83.9915 201.056 83.7421 200.871 83.4545 200.772V178.327L62.8634 166.527V143.341L82.7228 131.955V155.148L103.299 166.948V167.37L103.665 167.159L104.031 167.37V166.948L124.446 155.25L124.629 155.148V130.698L104.697 142.127C104.424 141.859 104.056 141.707 103.672 141.706C103.483 141.705 103.296 141.742 103.121 141.815C102.946 141.887 102.788 141.993 102.655 142.127L83.4545 131.119V83.4828L62.4976 95.5009L42.2724 83.8752L22.0764 72.3148L41.9065 60.9289L42.2724 61.1396V60.7181L42.6382 60.5074L42.2724 60.304V36.6965L21.6886 24.8891V2.8656C21.9572 2.80103 22.2019 2.66226 22.3943 2.46536C22.5868 2.26846 22.7191 2.02151 22.7762 1.75302C22.8332 1.48453 22.8125 1.20547 22.7165 0.948212C22.6204 0.690918 22.453 0.465881 22.2335 0.299133C22.0141 0.132385 21.7515 0.0307312 21.4763 0.00595093C21.2011 -0.0188293 20.9245 0.0342712 20.6784 0.159088C20.4323 0.283936 20.2269 0.475372 20.0858 0.711334C19.9447 0.947266 19.8738 1.21805 19.8813 1.49234C19.8853 1.6178 19.9049 1.74225 19.9398 1.86288L0.548798 12.98L0.365845 13.089V37.5394L20.9569 25.7393V48.4966L0 60.5074ZM20.9423 166.527L1.08295 177.913V155.148L20.9423 143.762V166.527ZM1.0976 84.3256L20.9569 72.9397V95.7116L1.0976 107.09V84.3256ZM1.0976 108.355L20.9569 119.733V142.505L1.0976 131.119V108.355ZM21.3447 119.108L1.48538 107.722L10.5077 102.549L21.3447 96.3365L40.5528 107.352C40.478 107.588 40.478 107.842 40.5528 108.078L21.3447 119.108ZM42.2724 131.119V109.096C42.5225 109.036 42.7506 108.907 42.9309 108.725L52.202 114.044L62.1317 119.733V142.498L52.202 136.809L42.2724 131.119ZM41.5406 225.578L21.7033 236.921V214.156L41.5626 202.777L41.5406 225.578ZM41.5406 179.206V201.934L21.6813 213.32V191.718C21.9845 191.634 22.2521 191.455 22.4445 191.207C22.637 190.96 22.744 190.658 22.7496 190.345C22.748 190.22 22.7308 190.095 22.6984 189.974L41.5406 179.206ZM20.9423 260.942L1.08295 272.328V249.563L20.9423 238.178V260.942ZM21.674 237.763L41.5626 226.377V249.142L21.7033 260.528L21.674 237.763ZM62.1463 260.528L42.2943 249.142V226.377L62.1317 237.756V238.185L62.1463 260.528ZM62.8781 236.921V214.156L82.0788 203.148C82.2591 203.33 82.4873 203.458 82.7374 203.518V225.542L62.8781 236.921ZM82.7374 178.748V200.772C82.4895 200.832 82.2637 200.96 82.0862 201.142L62.8634 190.127V167.362L82.7374 178.748ZM42.287 154.719V131.955L52.2167 137.644L62.1463 143.341V166.105L42.287 154.719ZM123.898 131.962V154.727L104.031 166.113V144.503C104.334 144.419 104.602 144.24 104.794 143.992C104.987 143.745 105.094 143.443 105.099 143.13C105.098 143.005 105.08 142.88 105.048 142.759L123.898 131.962ZM103.299 144.503V166.105L83.4472 154.727V131.962L102.282 142.759C102.25 142.88 102.232 143.005 102.231 143.13C102.236 143.443 102.343 143.745 102.536 143.992C102.728 144.24 102.996 144.419 103.299 144.503ZM82.7154 131.119L62.8561 142.498V119.733L82.7154 108.355V131.119ZM82.7154 107.512L62.8634 118.919V96.1475L82.7228 84.7689L82.7154 107.512ZM62.1244 96.133V118.919L52.1947 113.223L43.2822 108.137C43.3206 108.017 43.3403 107.892 43.3407 107.766C43.3346 107.452 43.2266 107.149 43.0327 106.902C42.8389 106.654 42.5696 106.476 42.2651 106.393V84.7689L62.1244 96.133ZM41.5406 106.349C41.2948 106.414 41.0704 106.542 40.8894 106.72L21.6886 95.7116V72.9397L41.5406 84.3256V106.349ZM21.6886 71.6899L21.3228 71.9006L20.9569 71.6899L1.46347 60.5147L21.3447 49.1288L41.1747 60.5074L21.6886 71.6899ZM41.5406 59.8825L21.6886 48.4966V25.732L41.5406 37.1107V59.8825ZM1.0976 36.2751V13.5104L20.3057 2.49506C20.4844 2.67554 20.7097 2.80371 20.9569 2.8656V24.8891L1.0976 36.2751ZM122.822 178.501C122.826 178.629 122.846 178.756 122.88 178.879L103.489 189.989L103.299 190.127V237.32L84.2228 248.256C84.0965 248.049 83.9203 247.877 83.7102 247.755C83.5001 247.633 83.2627 247.566 83.0195 247.558C82.7763 247.55 82.535 247.602 82.3174 247.711C82.0998 247.819 81.9128 247.979 81.7732 248.177C81.6337 248.375 81.5461 248.604 81.5182 248.844C81.4904 249.084 81.5234 249.327 81.614 249.552C81.7047 249.776 81.8501 249.974 82.0374 250.128C82.2245 250.283 82.4476 250.388 82.6862 250.435V273.585L103.299 261.785V284.971L124.593 297.193V272.75L104.397 261.167L124.263 249.774L143.472 260.79C143.433 260.909 143.413 261.034 143.413 261.16C143.413 261.546 143.567 261.915 143.842 262.188C144.116 262.46 144.488 262.613 144.876 262.613C145.265 262.613 145.637 262.46 145.911 262.188C146.186 261.915 146.34 261.546 146.34 261.16C146.334 260.847 146.226 260.544 146.032 260.296C145.838 260.049 145.569 259.87 145.264 259.787V238.185V214.156L165.438 202.567L185.298 213.945L165.255 225.44L165.072 225.542V249.149L164.706 249.36L165.072 249.571V272.757L144.664 284.455L144.481 284.557V309L165.621 296.887L165.804 296.778V273.592L185.663 284.978V285.4L186.029 285.189L206.979 297.2V274.341C207.227 274.275 207.453 274.147 207.637 273.97L226.838 284.978V308.993L247.451 297.193L268.562 285.08L268.745 284.978V261.792L288.604 273.171V273.592L288.97 273.382L289.336 273.592V273.171L309.554 261.545L330.511 273.592V249.571L350.363 238.185V261.335L371.685 273.592L392.269 285.4V261.335L411.477 250.363C411.679 250.573 411.94 250.718 412.225 250.78C412.511 250.842 412.809 250.817 413.08 250.709C413.352 250.601 413.585 250.415 413.748 250.175C413.912 249.934 414 249.65 414 249.36C414 249.07 413.912 248.786 413.748 248.545C413.585 248.305 413.352 248.119 413.08 248.011C412.809 247.903 412.511 247.878 412.225 247.94C411.94 248.002 411.679 248.147 411.477 248.357L392.269 237.356V213.32L371.115 225.44L370.932 225.542V248.728L351.094 237.356V213.32L331.162 224.75C330.981 224.572 330.756 224.444 330.511 224.379V201.942L309.188 189.713V213.32L288.604 201.52V225.963L308.822 237.553L288.97 248.939L268.013 236.928V260.949L248.183 272.335V225.956L268.591 214.258L268.774 214.156V189.713L248.842 201.135C248.569 200.867 248.201 200.715 247.817 200.714C247.489 200.748 247.183 200.89 246.947 201.119C246.711 201.347 246.56 201.648 246.517 201.972C246.475 202.297 246.544 202.626 246.714 202.907C246.883 203.187 247.143 203.403 247.451 203.518V225.542L227.05 237.24L226.868 237.342V260.528L207.008 249.149V227.126C207.309 227.035 207.573 226.851 207.76 226.599C207.948 226.348 208.048 226.043 208.047 225.731C208.046 225.606 208.028 225.481 207.996 225.36L227.387 214.243L227.57 214.134V189.713L206.613 201.753L186.029 189.953L165.438 201.753L144.847 189.953L124.629 201.578V179.976C124.898 179.912 125.143 179.773 125.335 179.576C125.527 179.379 125.66 179.132 125.717 178.864C125.774 178.595 125.753 178.316 125.657 178.059C125.561 177.802 125.394 177.577 125.174 177.41C124.955 177.243 124.692 177.141 124.417 177.117C124.142 177.092 123.865 177.145 123.619 177.27C123.373 177.395 123.168 177.586 123.026 177.822C122.885 178.058 122.814 178.329 122.822 178.603V178.501ZM104.031 190.556L123.232 179.548C123.416 179.724 123.643 179.849 123.89 179.911V201.934L123.524 202.145L104.031 213.32V190.556ZM144.481 236.928L124.629 225.542V202.777L144.481 214.156V236.928ZM123.898 225.542L104.031 236.921V214.156L123.898 202.777V225.542ZM104.031 237.763L123.898 226.377V249.142L104.031 260.528V237.763ZM83.4106 272.328V250.435C83.7137 250.351 83.9814 250.172 84.1739 249.925C84.3663 249.677 84.4733 249.375 84.479 249.062C84.479 249.011 84.479 248.968 84.479 248.924L103.299 238.178V260.942L83.4106 272.328ZM123.861 295.936L104.031 284.55V261.785L123.861 273.164V295.936ZM144.481 259.787C144.234 259.849 144.009 259.977 143.83 260.157L124.629 249.142V226.385L144.481 237.763V259.787ZM186.029 237.989L205.881 249.36L196.859 254.526L186.029 260.739L166.17 249.36L175.192 244.187L186.029 237.989ZM206.247 271.587C206.002 271.655 205.778 271.782 205.596 271.958L186.761 261.16L206.247 249.985V271.587ZM186.395 261.792L205.23 272.59C205.198 272.713 205.181 272.84 205.179 272.968C205.182 273.093 205.199 273.217 205.23 273.338L186.395 284.135V261.792ZM186.395 237.342V214.577L205.23 225.382C205.198 225.503 205.18 225.627 205.179 225.753C205.184 226.065 205.291 226.368 205.484 226.615C205.676 226.862 205.944 227.041 206.247 227.126V248.728L186.395 237.342ZM206.247 224.379C206 224.441 205.775 224.569 205.596 224.75L186.761 213.945L206.247 202.777V224.379ZM165.804 225.963L185.663 214.577V237.356L165.804 248.742V225.963ZM165.072 296.357L145.213 307.743V284.978L165.072 273.592V296.357ZM165.804 272.757V249.985L185.663 261.335V284.135L165.804 272.757ZM186.761 284.768L205.596 273.97C205.777 274.148 206.001 274.276 206.247 274.341V295.943L186.761 284.768ZM227.57 307.736V284.978L247.451 273.592V296.35L227.57 307.736ZM289.336 272.335V249.571L309.188 238.185V260.949L289.336 272.335ZM329.779 272.335L309.92 260.949V238.185L319.849 243.896L329.779 249.593V272.335ZM309.92 214.577L319.849 220.274L328.762 225.36C328.717 225.48 328.687 225.604 328.674 225.731C328.68 226.044 328.788 226.347 328.982 226.595C329.176 226.842 329.445 227.021 329.75 227.104V248.728L319.82 243.039L309.92 237.356V214.577ZM351.094 238.185L370.954 249.571V272.335L351.094 260.949V238.185ZM391.537 284.143L371.685 272.757V249.985L391.537 261.335V284.143ZM411.111 249.709L391.911 260.739L372.051 249.36L381.074 244.187L391.903 237.974L411.111 248.982C411.046 249.22 411.046 249.471 411.111 249.709ZM371.685 225.941L391.537 214.577V237.356L371.685 248.742V225.941ZM350.363 214.556V237.356L330.511 248.735V227.126C330.821 227.044 331.097 226.864 331.294 226.612C331.491 226.359 331.599 226.05 331.601 225.731C331.601 225.605 331.581 225.48 331.542 225.36L350.363 214.556ZM309.92 190.955L329.779 202.356V224.379C329.53 224.443 329.303 224.571 329.12 224.75L319.849 219.431L309.92 213.742V190.955ZM289.336 202.755L309.188 214.163V236.928L289.336 225.542V202.755ZM268.745 238.185L288.604 249.571V272.335L268.745 260.949V238.185ZM268.013 261.792V284.586L248.183 295.936V273.171L268.013 261.792ZM227.57 284.128V261.335L247.451 249.985V272.75L227.57 284.128ZM268.013 190.97V213.734L248.183 225.12V203.518C248.487 203.435 248.757 203.257 248.951 203.009C249.145 202.762 249.253 202.459 249.259 202.145C249.254 202.017 249.234 201.89 249.2 201.767L268.013 190.97ZM227.57 237.763L247.451 226.377V249.149L227.57 260.528V237.763ZM226.838 284.135L207.996 273.338C208.027 273.217 208.045 273.093 208.047 272.968C208.043 272.654 207.937 272.35 207.744 272.101C207.552 271.852 207.283 271.672 206.979 271.587V249.985L226.838 261.335V284.135ZM226.838 213.734L207.63 224.75C207.451 224.569 207.226 224.441 206.979 224.379V202.356L226.838 190.97V213.734ZM186.029 190.759L205.881 202.145L186.395 213.32L186.029 213.531L185.663 213.32L166.17 202.145L186.029 190.759ZM164.706 202.145L144.847 213.531L124.995 202.145L144.847 190.759L164.706 202.145Z" fill="#C73095"/>
</svg>
