<svg width="13" height="14" viewBox="0 0 13 14" fill="none" xmlns="http://www.w3.org/2000/svg">
<path d="M1.20037 3.42419C1.32072 2.88281 1.62209 2.39865 2.05472 2.05166C2.48736 1.70467 3.02539 1.51558 3.57998 1.51563H9.41901C9.97361 1.51558 10.5116 1.70467 10.9443 2.05166C11.3769 2.39865 11.6783 2.88281 11.7986 3.42419L11.8882 3.82759C12.3526 5.91704 12.3526 8.08296 11.8882 10.1724L11.7986 10.5758C11.6783 11.1172 11.3769 11.6013 10.9443 11.9483C10.5116 12.2953 9.97361 12.4844 9.41901 12.4844H3.58059C3.02599 12.4844 2.48796 12.2953 2.05533 11.9483C1.6227 11.6013 1.32133 11.1172 1.20098 10.5758L1.1114 10.1724C0.64711 8.08295 0.64711 5.91705 1.1114 3.82759L1.20098 3.42419H1.20037Z" stroke="#666666" stroke-width="1.5" stroke-linecap="round" stroke-linejoin="round"/>
<path d="M0.710938 7.60938H4.57316C4.57316 8.21875 5.16608 9.4375 6.64808 9.4375C8.13069 9.4375 8.72361 8.21875 8.72361 7.60938H12.2891" stroke="#666666" stroke-width="1.5" stroke-linejoin="round"/>
</svg>
