<svg width="80" height="80" viewBox="0 0 80 80" fill="none" xmlns="http://www.w3.org/2000/svg">
<g clip-path="url(#clip0_500_13884)">
<rect width="80" height="80" rx="40" fill="#EBF7F0"/>
<g clip-path="url(#clip1_500_13884)">
<path d="M11 25L11.86 22.4202C11.4236 21.6862 11.1724 20.8297 11.1724 19.9138C11.1724 17.2 13.3724 15 16.0862 15C18.8 15 21 17.2 21 19.9138C21 22.6276 18.8 24.8276 16.0862 24.8276C15.2605 24.8276 14.4829 24.6229 13.8 24.2633L11 25Z" fill="#2CB742"/>
<path d="M19.2211 21.5491C18.9942 21.1203 18.1574 20.63 18.1574 20.63C17.9681 20.5221 17.7397 20.51 17.6318 20.7024C17.6318 20.7024 17.3599 21.0284 17.2907 21.0753C16.9749 21.2893 16.6823 21.281 16.3869 20.9857L15.7005 20.2993L15.0142 19.6129C14.7188 19.3176 14.7105 19.025 14.9245 18.7091C14.9714 18.64 15.2974 18.3681 15.2974 18.3681C15.4899 18.26 15.4778 18.0317 15.3699 17.8424C15.3699 17.8424 14.8795 17.0057 14.4507 16.7788C14.2683 16.6822 14.0443 16.716 13.8985 16.8619L13.5954 17.165C12.6338 18.1265 13.1073 19.2121 14.0688 20.1736L14.9476 21.0524L15.8264 21.9312C16.788 22.8928 17.8735 23.3662 18.835 22.4047L19.1381 22.1015C19.284 21.9553 19.3176 21.7314 19.2211 21.5491Z" fill="white"/>
</g>
<rect x="25" y="15" width="43" height="10" rx="1" fill="url(#paint0_linear_500_13884)"/>
<g clip-path="url(#clip2_500_13884)">
<path d="M18.5 33.625H13.5C12.4645 33.625 11.625 34.4645 11.625 35.5V40.5C11.625 41.5355 12.4645 42.375 13.5 42.375H18.5C19.5355 42.375 20.375 41.5355 20.375 40.5V35.5C20.375 34.4645 19.5355 33.625 18.5 33.625Z" fill="url(#paint1_radial_500_13884)"/>
<path d="M18.5 33.625H13.5C12.4645 33.625 11.625 34.4645 11.625 35.5V40.5C11.625 41.5355 12.4645 42.375 13.5 42.375H18.5C19.5355 42.375 20.375 41.5355 20.375 40.5V35.5C20.375 34.4645 19.5355 33.625 18.5 33.625Z" fill="url(#paint2_radial_500_13884)"/>
<path d="M18.5 33.625H13.5C12.4645 33.625 11.625 34.4645 11.625 35.5V40.5C11.625 41.5355 12.4645 42.375 13.5 42.375H18.5C19.5355 42.375 20.375 41.5355 20.375 40.5V35.5C20.375 34.4645 19.5355 33.625 18.5 33.625Z" fill="url(#paint3_radial_500_13884)"/>
<path d="M18.1875 36.2812C18.1875 36.5401 17.9776 36.75 17.7188 36.75C17.4599 36.75 17.25 36.5401 17.25 36.2812C17.25 36.0224 17.4599 35.8125 17.7188 35.8125C17.9776 35.8125 18.1875 36.0224 18.1875 36.2812Z" fill="white"/>
<path fill-rule="evenodd" clip-rule="evenodd" d="M16 39.5625C16.8629 39.5625 17.5625 38.8629 17.5625 38C17.5625 37.1371 16.8629 36.4375 16 36.4375C15.1371 36.4375 14.4375 37.1371 14.4375 38C14.4375 38.8629 15.1371 39.5625 16 39.5625ZM16 38.9375C16.5178 38.9375 16.9375 38.5178 16.9375 38C16.9375 37.4822 16.5178 37.0625 16 37.0625C15.4822 37.0625 15.0625 37.4822 15.0625 38C15.0625 38.5178 15.4822 38.9375 16 38.9375Z" fill="white"/>
<path fill-rule="evenodd" clip-rule="evenodd" d="M12.875 37.875C12.875 36.8249 12.875 36.2998 13.0794 35.8988C13.2591 35.546 13.546 35.2591 13.8988 35.0794C14.2998 34.875 14.8249 34.875 15.875 34.875H16.125C17.1751 34.875 17.7002 34.875 18.1012 35.0794C18.454 35.2591 18.7409 35.546 18.9206 35.8988C19.125 36.2998 19.125 36.8249 19.125 37.875V38.125C19.125 39.1751 19.125 39.7002 18.9206 40.1012C18.7409 40.454 18.454 40.7409 18.1012 40.9206C17.7002 41.125 17.1751 41.125 16.125 41.125H15.875C14.8249 41.125 14.2998 41.125 13.8988 40.9206C13.546 40.7409 13.2591 40.454 13.0794 40.1012C12.875 39.7002 12.875 39.1751 12.875 38.125V37.875ZM15.875 35.5H16.125C16.6604 35.5 17.0243 35.5005 17.3056 35.5235C17.5796 35.5459 17.7197 35.5864 17.8175 35.6362C18.0527 35.7561 18.2439 35.9473 18.3637 36.1825C18.4136 36.2802 18.4542 36.4204 18.4765 36.6944C18.4995 36.9757 18.5 37.3396 18.5 37.875V38.125C18.5 38.6604 18.4995 39.0243 18.4765 39.3056C18.4542 39.5796 18.4136 39.7197 18.3637 39.8175C18.2439 40.0527 18.0527 40.2439 17.8175 40.3637C17.7197 40.4136 17.5796 40.4542 17.3056 40.4765C17.0243 40.4995 16.6604 40.5 16.125 40.5H15.875C15.3396 40.5 14.9757 40.4995 14.6944 40.4765C14.4204 40.4542 14.2802 40.4136 14.1825 40.3637C13.9473 40.2439 13.7561 40.0527 13.6362 39.8175C13.5864 39.7197 13.5459 39.5796 13.5235 39.3056C13.5005 39.0243 13.5 38.6604 13.5 38.125V37.875C13.5 37.3396 13.5005 36.9757 13.5235 36.6944C13.5459 36.4204 13.5864 36.2802 13.6362 36.1825C13.7561 35.9473 13.9473 35.7561 14.1825 35.6362C14.2802 35.5864 14.4204 35.5459 14.6944 35.5235C14.9757 35.5005 15.3396 35.5 15.875 35.5Z" fill="white"/>
</g>
<rect x="25" y="33" width="39" height="10" rx="1" fill="url(#paint4_linear_500_13884)"/>
<g clip-path="url(#clip3_500_13884)">
<path d="M18.5 51.625H13.5C12.4645 51.625 11.625 52.4645 11.625 53.5V58.5C11.625 59.5355 12.4645 60.375 13.5 60.375H18.5C19.5355 60.375 20.375 59.5355 20.375 58.5V53.5C20.375 52.4645 19.5355 51.625 18.5 51.625Z" fill="url(#paint5_radial_500_13884)"/>
<path d="M18.5 51.625H13.5C12.4645 51.625 11.625 52.4645 11.625 53.5V58.5C11.625 59.5355 12.4645 60.375 13.5 60.375H18.5C19.5355 60.375 20.375 59.5355 20.375 58.5V53.5C20.375 52.4645 19.5355 51.625 18.5 51.625Z" fill="url(#paint6_radial_500_13884)"/>
<path d="M18.5 51.625H13.5C12.4645 51.625 11.625 52.4645 11.625 53.5V58.5C11.625 59.5355 12.4645 60.375 13.5 60.375H18.5C19.5355 60.375 20.375 59.5355 20.375 58.5V53.5C20.375 52.4645 19.5355 51.625 18.5 51.625Z" fill="url(#paint7_radial_500_13884)"/>
<path d="M18.1875 54.2812C18.1875 54.5401 17.9776 54.75 17.7188 54.75C17.4599 54.75 17.25 54.5401 17.25 54.2812C17.25 54.0224 17.4599 53.8125 17.7188 53.8125C17.9776 53.8125 18.1875 54.0224 18.1875 54.2812Z" fill="white"/>
<path fill-rule="evenodd" clip-rule="evenodd" d="M16 57.5625C16.8629 57.5625 17.5625 56.8629 17.5625 56C17.5625 55.1371 16.8629 54.4375 16 54.4375C15.1371 54.4375 14.4375 55.1371 14.4375 56C14.4375 56.8629 15.1371 57.5625 16 57.5625ZM16 56.9375C16.5178 56.9375 16.9375 56.5178 16.9375 56C16.9375 55.4822 16.5178 55.0625 16 55.0625C15.4822 55.0625 15.0625 55.4822 15.0625 56C15.0625 56.5178 15.4822 56.9375 16 56.9375Z" fill="white"/>
<path fill-rule="evenodd" clip-rule="evenodd" d="M12.875 55.875C12.875 54.8249 12.875 54.2998 13.0794 53.8988C13.2591 53.546 13.546 53.2591 13.8988 53.0794C14.2998 52.875 14.8249 52.875 15.875 52.875H16.125C17.1751 52.875 17.7002 52.875 18.1012 53.0794C18.454 53.2591 18.7409 53.546 18.9206 53.8988C19.125 54.2998 19.125 54.8249 19.125 55.875V56.125C19.125 57.1751 19.125 57.7002 18.9206 58.1012C18.7409 58.454 18.454 58.7409 18.1012 58.9206C17.7002 59.125 17.1751 59.125 16.125 59.125H15.875C14.8249 59.125 14.2998 59.125 13.8988 58.9206C13.546 58.7409 13.2591 58.454 13.0794 58.1012C12.875 57.7002 12.875 57.1751 12.875 56.125V55.875ZM15.875 53.5H16.125C16.6604 53.5 17.0243 53.5005 17.3056 53.5235C17.5796 53.5459 17.7197 53.5864 17.8175 53.6362C18.0527 53.7561 18.2439 53.9473 18.3637 54.1825C18.4136 54.2802 18.4542 54.4204 18.4765 54.6944C18.4995 54.9757 18.5 55.3396 18.5 55.875V56.125C18.5 56.6604 18.4995 57.0243 18.4765 57.3056C18.4542 57.5796 18.4136 57.7197 18.3637 57.8175C18.2439 58.0527 18.0527 58.2439 17.8175 58.3637C17.7197 58.4136 17.5796 58.4542 17.3056 58.4765C17.0243 58.4995 16.6604 58.5 16.125 58.5H15.875C15.3396 58.5 14.9757 58.4995 14.6944 58.4765C14.4204 58.4542 14.2802 58.4136 14.1825 58.3637C13.9473 58.2439 13.7561 58.0527 13.6362 57.8175C13.5864 57.7197 13.5459 57.5796 13.5235 57.3056C13.5005 57.0243 13.5 56.6604 13.5 56.125V55.875C13.5 55.3396 13.5005 54.9757 13.5235 54.6944C13.5459 54.4204 13.5864 54.2802 13.6362 54.1825C13.7561 53.9473 13.9473 53.7561 14.1825 53.6362C14.2802 53.5864 14.4204 53.5459 14.6944 53.5235C14.9757 53.5005 15.3396 53.5 15.875 53.5Z" fill="white"/>
</g>
<rect x="25" y="51" width="39" height="10" rx="1" fill="url(#paint8_linear_500_13884)"/>
</g>
<rect x="0.5" y="0.5" width="79" height="79" rx="39.5" stroke="#2BC666"/>
<defs>
<linearGradient id="paint0_linear_500_13884" x1="25" y1="20" x2="68.5443" y2="20" gradientUnits="userSpaceOnUse">
<stop stop-color="#A4EBBE"/>
<stop offset="1" stop-color="#CCCCCC" stop-opacity="0"/>
</linearGradient>
<radialGradient id="paint1_radial_500_13884" cx="0" cy="0" r="1" gradientUnits="userSpaceOnUse" gradientTransform="translate(14.75 40.1875) rotate(-55.3758) scale(7.97488)">
<stop stop-color="#B13589"/>
<stop offset="0.79309" stop-color="#C62F94"/>
<stop offset="1" stop-color="#8A3AC8"/>
</radialGradient>
<radialGradient id="paint2_radial_500_13884" cx="0" cy="0" r="1" gradientUnits="userSpaceOnUse" gradientTransform="translate(14.4375 42.6875) rotate(-65.1363) scale(7.06069)">
<stop stop-color="#E0E8B7"/>
<stop offset="0.444662" stop-color="#FB8A2E"/>
<stop offset="0.71474" stop-color="#E2425C"/>
<stop offset="1" stop-color="#E2425C" stop-opacity="0"/>
</radialGradient>
<radialGradient id="paint3_radial_500_13884" cx="0" cy="0" r="1" gradientUnits="userSpaceOnUse" gradientTransform="translate(11.1563 33.9375) rotate(-8.1301) scale(12.1534 2.59949)">
<stop offset="0.156701" stop-color="#406ADC"/>
<stop offset="0.467799" stop-color="#6A45BE"/>
<stop offset="1" stop-color="#6A45BE" stop-opacity="0"/>
</radialGradient>
<linearGradient id="paint4_linear_500_13884" x1="25" y1="38" x2="64.4937" y2="38" gradientUnits="userSpaceOnUse">
<stop stop-color="#A4EBBE"/>
<stop offset="1" stop-color="#CCCCCC" stop-opacity="0"/>
</linearGradient>
<radialGradient id="paint5_radial_500_13884" cx="0" cy="0" r="1" gradientUnits="userSpaceOnUse" gradientTransform="translate(14.75 58.1875) rotate(-55.3758) scale(7.97488)">
<stop stop-color="#B13589"/>
<stop offset="0.79309" stop-color="#C62F94"/>
<stop offset="1" stop-color="#8A3AC8"/>
</radialGradient>
<radialGradient id="paint6_radial_500_13884" cx="0" cy="0" r="1" gradientUnits="userSpaceOnUse" gradientTransform="translate(14.4375 60.6875) rotate(-65.1363) scale(7.06069)">
<stop stop-color="#E0E8B7"/>
<stop offset="0.444662" stop-color="#FB8A2E"/>
<stop offset="0.71474" stop-color="#E2425C"/>
<stop offset="1" stop-color="#E2425C" stop-opacity="0"/>
</radialGradient>
<radialGradient id="paint7_radial_500_13884" cx="0" cy="0" r="1" gradientUnits="userSpaceOnUse" gradientTransform="translate(11.1563 51.9375) rotate(-8.1301) scale(12.1534 2.59949)">
<stop offset="0.156701" stop-color="#406ADC"/>
<stop offset="0.467799" stop-color="#6A45BE"/>
<stop offset="1" stop-color="#6A45BE" stop-opacity="0"/>
</radialGradient>
<linearGradient id="paint8_linear_500_13884" x1="25" y1="56" x2="64.4937" y2="56" gradientUnits="userSpaceOnUse">
<stop stop-color="#A4EBBE"/>
<stop offset="1" stop-color="#CCCCCC" stop-opacity="0"/>
</linearGradient>
<clipPath id="clip0_500_13884">
<rect width="80" height="80" rx="40" fill="white"/>
</clipPath>
<clipPath id="clip1_500_13884">
<rect width="10" height="10" fill="white" transform="translate(11 15)"/>
</clipPath>
<clipPath id="clip2_500_13884">
<rect width="10" height="10" fill="white" transform="translate(11 33)"/>
</clipPath>
<clipPath id="clip3_500_13884">
<rect width="10" height="10" fill="white" transform="translate(11 51)"/>
</clipPath>
</defs>
</svg>
