<svg width="414" height="309" viewBox="0 0 414 309" fill="none" xmlns="http://www.w3.org/2000/svg">
<path opacity="0.3" d="M414 248.493L393.387 236.685L413.429 225.198L413.612 225.096V201.488L413.978 201.278L413.612 201.067V177.459L393.387 165.87L413.437 154.375L413.62 154.273V129.83L392.509 141.95L392.326 142.052V165.245V189.274L373.111 200.253C372.932 200.073 372.707 199.944 372.459 199.883V153.859L351.868 142.059V118.452L332.294 107.247C332.332 107.125 332.352 106.998 332.353 106.869C332.353 106.744 332.333 106.619 332.294 106.499L351.678 95.3673L351.861 95.2655V72.0868L371.698 83.4582V131.087L391.638 119.658C391.791 119.833 391.983 119.97 392.2 120.057C392.417 120.144 392.651 120.178 392.884 120.156C393.116 120.134 393.34 120.058 393.537 119.933C393.733 119.807 393.897 119.637 394.014 119.436C394.131 119.236 394.198 119.01 394.209 118.778C394.22 118.547 394.175 118.316 394.078 118.105C393.981 117.894 393.834 117.709 393.65 117.566C393.466 117.423 393.251 117.325 393.021 117.282V71.6798L413.459 59.9669L413.641 59.8579V35.4149L393.028 47.2368L372.072 59.2258L351.122 47.215V71.2439L330.728 82.935L330.546 83.0367V105.482C330.258 105.58 330.009 105.766 329.832 106.012C329.655 106.258 329.561 106.553 329.561 106.855C329.561 107.157 329.655 107.452 329.832 107.698C330.009 107.944 330.258 108.129 330.546 108.228V130.673L351.137 142.473V165.659L331.277 177.045V153.852L310.701 142.052V141.63L310.335 141.841L309.969 141.63V142.052L289.554 153.75L289.371 153.852V178.302L309.303 166.873C309.576 167.141 309.944 167.293 310.328 167.294C310.517 167.295 310.704 167.258 310.879 167.185C311.054 167.113 311.212 167.007 311.345 166.873L330.546 177.881V225.517L351.502 213.499L371.728 225.125L391.924 236.685L372.094 248.071L371.728 247.86V248.282L371.362 248.493L371.728 248.696V272.303L392.311 284.111V306.134C392.043 306.199 391.798 306.338 391.606 306.535C391.413 306.732 391.281 306.978 391.224 307.247C391.167 307.515 391.188 307.794 391.284 308.052C391.38 308.309 391.547 308.534 391.766 308.701C391.986 308.868 392.248 308.969 392.524 308.994C392.799 309.019 393.075 308.966 393.322 308.841C393.568 308.716 393.773 308.525 393.914 308.289C394.055 308.053 394.126 307.782 394.119 307.508C394.115 307.382 394.095 307.258 394.06 307.137L413.451 296.02L413.634 295.911V271.461L393.043 283.261V260.503L414 248.493ZM393.058 142.473L412.917 131.087V153.852L393.058 165.238V142.473ZM412.902 224.674L393.043 236.06V213.288L412.902 201.91V224.674ZM412.902 200.645L393.043 189.267V166.495L412.902 177.881V200.645ZM392.655 189.892L412.515 201.278L403.492 206.451L392.655 212.664L373.447 201.648C373.522 201.412 373.522 201.158 373.447 200.922L392.655 189.892ZM371.728 177.881V199.904C371.478 199.964 371.249 200.093 371.069 200.275L361.798 194.956L351.868 189.267V166.502L361.798 172.191L371.728 177.881ZM372.459 83.4218L392.297 72.0795V94.8441L372.437 106.223L372.459 83.4218ZM372.459 129.794V107.066L392.319 95.6797V117.282C392.016 117.366 391.748 117.545 391.555 117.793C391.363 118.04 391.256 118.342 391.25 118.655C391.252 118.78 391.269 118.905 391.302 119.026L372.459 129.794ZM393.058 48.0578L412.917 36.6719V59.4365L393.058 70.8225V48.0578ZM392.326 71.2366L372.437 82.6226V59.8579L392.297 48.472L392.326 71.2366ZM351.854 48.472L371.706 59.8579V82.6226L351.868 71.2439V70.8152L351.854 48.472ZM351.122 72.0795V94.8441L331.921 105.852C331.741 105.67 331.513 105.542 331.263 105.482V83.4582L351.122 72.0795ZM331.263 130.252V108.228C331.51 108.168 331.736 108.04 331.914 107.858L351.137 118.873V141.638L331.263 130.252ZM371.713 154.281V177.045L361.783 171.356L351.854 165.659V142.895L371.713 154.281ZM290.102 177.038V154.273L309.969 142.887V164.497C309.666 164.581 309.398 164.76 309.206 165.008C309.013 165.255 308.906 165.557 308.901 165.87C308.902 165.995 308.92 166.12 308.952 166.241L290.102 177.038ZM310.701 164.497V142.895L330.553 154.273V177.038L311.718 166.241C311.75 166.12 311.768 165.995 311.769 165.87C311.764 165.557 311.657 165.255 311.464 165.008C311.272 164.76 311.004 164.581 310.701 164.497ZM331.285 177.881L351.144 166.502V189.267L331.285 200.645V177.881ZM331.285 201.488L351.137 190.081V212.852L331.277 224.231L331.285 201.488ZM351.876 212.867V190.081L361.805 195.777L370.718 200.863C370.679 200.983 370.66 201.108 370.659 201.234C370.665 201.548 370.773 201.851 370.967 202.098C371.161 202.346 371.43 202.524 371.735 202.607V224.231L351.876 212.867ZM372.459 202.651C372.705 202.586 372.93 202.458 373.111 202.28L392.311 213.288V236.06L372.459 224.674V202.651ZM392.311 237.31L392.677 237.099L393.043 237.31L412.537 248.485L392.655 259.871L372.825 248.493L392.311 237.31ZM372.459 249.117L392.311 260.503V283.268L372.459 271.889V249.117ZM412.902 272.725V295.49L393.694 306.505C393.516 306.324 393.29 306.196 393.043 306.134V284.111L412.902 272.725ZM291.178 130.499C291.173 130.371 291.154 130.244 291.12 130.121L310.511 119.011L310.701 118.873V71.6798L329.777 60.7444C329.904 60.9509 330.08 61.1228 330.29 61.2447C330.5 61.3665 330.737 61.4344 330.98 61.4422C331.224 61.4501 331.465 61.3975 331.683 61.2894C331.9 61.1814 332.087 61.0211 332.227 60.8232C332.366 60.6252 332.454 60.3959 332.482 60.1558C332.51 59.9158 332.477 59.6727 332.386 59.4485C332.295 59.2242 332.15 59.026 331.963 58.8717C331.775 58.7173 331.552 58.6118 331.314 58.5646V35.4149L310.701 47.215V24.0289L289.407 11.8074V36.2505L309.603 47.8326L289.737 59.2258L270.528 48.2104C270.567 48.0906 270.587 47.9656 270.587 47.8398C270.587 47.4544 270.433 47.0848 270.158 46.8123C269.884 46.5397 269.512 46.3866 269.124 46.3866C268.735 46.3866 268.363 46.5397 268.089 46.8123C267.814 47.0848 267.66 47.4544 267.66 47.8398C267.666 48.1533 267.774 48.4565 267.968 48.704C268.162 48.9515 268.431 49.1301 268.736 49.2131V70.8152V94.8441L248.562 106.433L228.702 95.0548L248.745 83.5599L248.928 83.4582V59.8507L249.294 59.64L248.928 59.4292V36.2432L269.336 24.5448L269.519 24.4431V0L248.379 12.1125L248.196 12.2215V35.4076L228.337 24.0217V23.6002L227.971 23.8109L207.021 11.8001V34.6592C206.773 34.7254 206.547 34.8529 206.363 35.0298L187.162 24.0217V0.00726763L166.549 11.8074L145.438 23.9199L145.255 24.0217V47.2077L125.396 35.829V35.4076L125.03 35.6183L124.664 35.4076V35.829L104.446 47.4548L83.4894 35.4076V59.4292L63.6374 70.8152V47.6655L42.3146 35.4076L21.7308 23.6002V47.6655L2.52275 58.6372C2.32097 58.4271 2.06042 58.2817 1.77468 58.22C1.48893 58.1582 1.19112 58.1829 0.919631 58.2908C0.648144 58.3987 0.415439 58.5849 0.251525 58.8254C0.0876097 59.0659 0 59.3496 0 59.64C0 59.9303 0.0876097 60.2141 0.251525 60.4545C0.415439 60.695 0.648144 60.8812 0.919631 60.9891C1.19112 61.097 1.48893 61.1217 1.77468 61.0599C2.06042 60.9982 2.32097 60.8529 2.52275 60.6427L21.7308 71.6435V95.6797L42.8853 83.5599L43.0683 83.4582V60.2721L62.9056 71.6435V95.6797L82.8381 84.2502C83.0191 84.4278 83.2435 84.5555 83.4894 84.6207V107.058L104.812 119.287V95.6797L125.396 107.48V83.0367L105.178 71.4473L125.03 60.0614L145.987 72.0722V48.0506L165.817 36.6646V83.044L145.409 94.7424L145.226 94.8441V119.287L165.158 107.865C165.431 108.133 165.799 108.285 166.183 108.286C166.511 108.252 166.817 108.11 167.053 107.881C167.289 107.653 167.44 107.352 167.483 107.028C167.525 106.703 167.456 106.374 167.286 106.093C167.117 105.813 166.857 105.597 166.549 105.482V83.4582L186.95 71.7598L187.132 71.6581V48.472L206.992 59.8507V81.8742C206.691 81.9648 206.427 82.1495 206.24 82.4008C206.052 82.6521 205.952 82.9567 205.953 83.2692C205.954 83.3944 205.972 83.5189 206.004 83.6398L186.613 94.7569L186.43 94.8659V119.287L207.387 107.247L227.971 119.047L248.562 107.247L269.153 119.047L289.371 107.422V129.024C289.102 129.088 288.857 129.227 288.665 129.424C288.473 129.621 288.34 129.868 288.283 130.136C288.226 130.405 288.247 130.684 288.343 130.941C288.439 131.198 288.606 131.423 288.826 131.59C289.045 131.757 289.308 131.859 289.583 131.883C289.858 131.908 290.135 131.855 290.381 131.73C290.627 131.605 290.832 131.414 290.974 131.178C291.115 130.942 291.186 130.671 291.178 130.397V130.499ZM309.969 118.444L290.768 129.452C290.584 129.276 290.357 129.151 290.11 129.089V107.066L290.476 106.855L309.969 95.6797V118.444ZM269.519 72.0722L289.371 83.4582V106.223L269.519 94.8441V72.0722ZM290.102 83.4582L309.969 72.0795V94.8441L290.102 106.223V83.4582ZM309.969 71.2366L290.102 82.6226V59.8579L309.969 48.472V71.2366ZM330.589 36.6719V58.5646C330.286 58.6489 330.019 58.8281 329.826 59.0755C329.634 59.3229 329.527 59.6253 329.521 59.9379C329.521 59.9887 329.521 60.0323 329.521 60.0759L310.701 70.8225V48.0578L330.589 36.6719ZM290.139 13.0644L309.969 24.4503V47.215L290.139 35.8363V13.0644ZM269.519 49.2131C269.766 49.1512 269.991 49.023 270.17 48.8426L289.371 59.8579V82.6153L269.519 71.2366V49.2131ZM227.971 71.0114L208.119 59.64L217.141 54.4738L227.971 48.2613L247.83 59.64L238.808 64.8134L227.971 71.0114ZM207.753 37.413C207.998 37.3454 208.222 37.218 208.404 37.0425L227.239 47.8398L207.753 59.0151V37.413ZM227.605 47.2077L208.77 36.4103C208.802 36.2868 208.819 36.16 208.821 36.0325C208.818 35.9074 208.801 35.7831 208.77 35.6619L227.605 24.8645V47.2077ZM227.605 71.6581V94.4227L208.77 83.618C208.802 83.4971 208.82 83.3726 208.821 83.2475C208.816 82.9349 208.709 82.6325 208.516 82.3851C208.324 82.1377 208.056 81.9585 207.753 81.8742V60.2721L227.605 71.6581ZM207.753 84.6207C208 84.5588 208.225 84.4306 208.404 84.2502L227.239 95.0548L207.753 106.223V84.6207ZM248.196 83.0367L228.337 94.4227V71.6435L248.196 60.2576V83.0367ZM248.928 12.643L268.787 1.25703V24.0217L248.928 35.4076V12.643ZM248.196 36.2432V59.0151L228.337 47.6655V24.8645L248.196 36.2432ZM227.239 24.2324L208.404 35.0298C208.223 34.8521 207.999 34.7244 207.753 34.6592V13.0571L227.239 24.2324ZM186.43 1.2643V24.0217L166.549 35.4076V12.6502L186.43 1.2643ZM124.664 36.6646V59.4292L104.812 70.8152V48.0506L124.664 36.6646ZM84.2211 36.6646L104.08 48.0506V70.8152L94.1508 65.104L84.2211 59.4074V36.6646ZM104.08 94.4227L94.1508 88.7261L85.2382 83.6398C85.283 83.5204 85.3125 83.3959 85.326 83.2692C85.3199 82.9557 85.2119 82.6526 85.018 82.4051C84.8242 82.1576 84.5549 81.979 84.2504 81.896V60.2721L94.18 65.9614L104.08 71.6435V94.4227ZM62.9056 70.8152L43.0463 59.4292V36.6646L62.9056 48.0506V70.8152ZM22.4626 24.8572L42.3146 36.2432V59.0151L22.4626 47.6655V24.8572ZM2.88861 59.2912L22.0894 48.2613L41.9487 59.64L32.9264 64.8134L22.0967 71.0259L2.88861 60.0178C2.9543 59.78 2.9543 59.529 2.88861 59.2912ZM42.3146 83.0585L22.4626 94.4227V71.6435L42.3146 60.2576V83.0585ZM63.6374 94.4445V71.6435L83.4894 60.2648V81.8742C83.1786 81.9555 82.9034 82.1363 82.7064 82.3884C82.5093 82.6405 82.4013 82.9501 82.3991 83.2692C82.3995 83.395 82.4192 83.52 82.4576 83.6398L63.6374 94.4445ZM104.08 118.045L84.2211 106.644V84.6207C84.4696 84.5567 84.6967 84.4289 84.8797 84.2502L94.1508 89.5689L104.08 95.2583V118.045ZM124.664 106.245L104.812 94.8368V72.0722L124.664 83.4582V106.245ZM145.255 70.8152L125.396 59.4292V36.6646L145.255 48.0506V70.8152ZM145.987 47.2077V24.414L165.817 13.0644V35.829L145.987 47.2077ZM186.43 24.8718V47.6655L166.549 59.0151V36.2505L186.43 24.8718ZM145.987 118.03V95.2655L165.817 83.8796V105.482C165.513 105.565 165.243 105.743 165.049 105.991C164.855 106.238 164.747 106.541 164.741 106.855C164.746 106.983 164.766 107.11 164.8 107.233L145.987 118.03ZM186.43 71.2366L166.549 82.6226V59.8507L186.43 48.472V71.2366ZM187.162 24.8645L206.004 35.6619C205.973 35.7831 205.955 35.9074 205.953 36.0325C205.957 36.3463 206.063 36.6504 206.256 36.8992C206.448 37.1481 206.717 37.3283 207.021 37.413V59.0151L187.162 47.6655V24.8645ZM187.162 95.2655L206.37 84.2502C206.549 84.4306 206.774 84.5588 207.021 84.6207V106.644L187.162 118.03V95.2655ZM227.971 118.241L208.119 106.855L227.605 95.6797L227.971 95.469L228.337 95.6797L247.83 106.855L227.971 118.241ZM249.294 106.855L269.153 95.469L289.005 106.855L269.153 118.241L249.294 106.855Z" fill="#C73095"/>
</svg>
